<?xml version='1.0' encoding='utf-8'?>
<svg xmlns="http://www.w3.org/2000/svg" width="1920" height="1080" viewBox="0 0 1920 1080" data-theme="light">
  <style>
        @font-face {
            font-family: 'Inter';
            src: url('assets/fonts/Inter-Regular.ttf') format('truetype');
            font-weight: 400;
            font-style: normal;
            font-display: swap;
        }
        @font-face {
            font-family: 'Inter';
            src: url('assets/fonts/Inter-Bold.ttf') format('truetype');
            font-weight: 600;
            font-style: normal;
            font-display: swap;
        }
        @font-face {
            font-family: 'Inter';
            src: url('assets/fonts/Inter-Bold.ttf') format('truetype');
            font-weight: 800;
            font-style: normal;
            font-display: swap;
        }
        
:root {
    --background: #f8fafc;
    --panel: #ffffff;
    --primary-text: #0f172a;
    --muted-text: #64748b;
    --inverse-text: #ffffff;
    --border: #e2e8f0;
    --shadow-color: #000000;
    --icon-pad-bg: #1e293b;
    --art-glow: #0891b2;
    --art-glow-opacity: 0.10;
    --art-sheen: #ffffff;
    --art-sheen-opacity: 0.34;
    --art-shadow: #0f172a;
    --art-shadow-opacity: 0.14;
    --art-muted-line: #94a3b8;
    --art-panel-tint: #f1f5f9;
    --font-family: 'Inter', 'Segoe UI', 'Kalam', Roboto, Helvetica, Arial, sans-serif;
    --radius-xl: 16px;
    --font-family-headline: 'Inter', 'Segoe UI', 'Kalam', Roboto, Helvetica, Arial, sans-serif;
    --font-family-body: 'Inter', 'Segoe UI', 'Kalam', Roboto, Helvetica, Arial, sans-serif;
    --font-heading: 'Inter', 'Segoe UI', 'Kalam', Roboto, Helvetica, Arial, sans-serif;
    --font-body: 'Inter', 'Segoe UI', 'Kalam', Roboto, Helvetica, Arial, sans-serif;
    --font-size-h1: 56px;
    --font-size-h2: 40px;
    --font-size-h3: 28px;
    --font-size-body: 24px;
    --font-size-caption: 18px;
    --secondary-text: var(--muted-text);
    --panel-border: var(--border);
    --font-weight-normal: 400;
    --font-weight-medium: 500;
    --font-weight-semibold: 600;
    --font-weight-bold: 700;
    --spacing-gutter-pct: 0.07;
    --spacing-top-pct: 0.15;
    --spacing-bottom-pct: 0.07;
    --spacing-title-y-pct: 0.055;
    --accent-1: #d97706;
    --accent-2: #ea580c;
    --accent-3: #dc2626;
    --accent-4: #65a30d;
    --accent-5: #16a34a;
    --accent-6: #92400e;
}
:root[data-theme="dark"] {
    --background: #0f172a;
    --panel: #1e293b;
    --primary-text: #f1f5f9;
    --muted-text: #94a3b8;
    --inverse-text: #0f172a;
    --border: #334155;
    --shadow-color: #000000;
    --icon-pad-bg: #1e293b;
    --art-glow: #7dd3fc;
    --art-glow-opacity: 0.18;
    --art-sheen: #ffffff;
    --art-sheen-opacity: 0.18;
    --art-shadow: #000000;
    --art-shadow-opacity: 0.28;
    --art-muted-line: #64748b;
    --art-panel-tint: #1e293b;
    --accent-1: #fbbf24;
    --accent-2: #fb923c;
    --accent-3: #f87171;
    --accent-4: #a3e635;
    --accent-5: #4ade80;
    --accent-6: #d4a574;
}
:root[data-theme="light"] {
    --background: #f8fafc;
    --panel: #ffffff;
    --primary-text: #0f172a;
    --muted-text: #64748b;
    --inverse-text: #ffffff;
    --border: #e2e8f0;
    --shadow-color: #000000;
    --icon-pad-bg: #1e293b;
    --art-glow: #0891b2;
    --art-glow-opacity: 0.10;
    --art-sheen: #ffffff;
    --art-sheen-opacity: 0.34;
    --art-shadow: #0f172a;
    --art-shadow-opacity: 0.14;
    --art-muted-line: #94a3b8;
    --art-panel-tint: #f1f5f9;
    --accent-1: #d97706;
    --accent-2: #ea580c;
    --accent-3: #dc2626;
    --accent-4: #65a30d;
    --accent-5: #16a34a;
    --accent-6: #92400e;
}</style>
  <rect x="0" y="0" width="1.92E+3" height="1.08E+3" fill="#252a34" stroke="none" id="programmatic_background"/>
  <line id="HEADER_DECOR" x1="960.0" x2="1080.0" y1="85.0" y2="85.0" stroke="var(--accent-1)" stroke-width="6" stroke-linecap="round"/>
  <defs>
    <pattern id="svg943651ce-napkin-hatch" patternUnits="userSpaceOnUse" width="12" height="12">
      <path d="M -3 12 L 12 -3 M 0 15 L 15 0" fill="none" stroke="var(--primary-text)" stroke-width="1" stroke-opacity="0.05"/>
    </pattern>
    <filter id="svg943651ce-shadow" x="-30%" y="-30%" width="160%" height="160%">
      <feDropShadow dx="0" dy="2" stdDeviation="3" flood-color="#000000" flood-opacity="0.08"/>
      <feDropShadow dx="0" dy="6" stdDeviation="10" flood-color="#000000" flood-opacity="0.12"/>
    </filter>
    <marker id="svg943651ce-arrowhead" markerWidth="10" markerHeight="10" refX="9" refY="5" orient="auto">
      <path d="M 0 0 L 10 5 L 0 10 Z" fill="var(--accent-1)"/>
    </marker>
    <filter id="svg943651ce-text-glow" x="-20%" y="-20%" width="140%" height="140%">
      <feDropShadow dx="0" dy="0" stdDeviation="2" flood-color="#000000" flood-opacity="0.4"/>
    </filter>
    <radialGradient id="svg943651ce-universal-edge-vignette" cx="50%" cy="50%" r="72%">
      <stop offset="0%" stop-color="var(--background)" stop-opacity="0"/>
      <stop offset="72%" stop-color="var(--background)" stop-opacity="0.12"/>
      <stop offset="100%" stop-color="var(--primary-text)" stop-opacity="0.08"/>
    </radialGradient>
    <linearGradient id="svg943651ce-universal-surface-sheen" x1="0%" y1="0%" x2="100%" y2="100%">
      <stop offset="0%" stop-color="var(--art-sheen)" stop-opacity="var(--art-sheen-opacity)"/>
      <stop offset="46%" stop-color="var(--art-sheen)" stop-opacity="0.035"/>
      <stop offset="100%" stop-color="var(--art-panel-tint)" stop-opacity="0.14"/>
    </linearGradient>
    <radialGradient id="svg943651ce-universal-icon-aura" cx="50%" cy="42%" r="64%">
      <stop offset="0%" stop-color="var(--art-glow)" stop-opacity="var(--art-glow-opacity)"/>
      <stop offset="100%" stop-color="var(--background)" stop-opacity="0"/>
    </radialGradient>
    <linearGradient id="svg943651ce-card-panel-sheen" x1="0%" y1="0%" x2="100%" y2="100%">
      <stop offset="0%" stop-color="var(--inverse-text)" stop-opacity="0.20"/>
      <stop offset="48%" stop-color="var(--inverse-text)" stop-opacity="0.04"/>
      <stop offset="100%" stop-color="var(--background)" stop-opacity="0.16"/>
    </linearGradient>
    <radialGradient id="svg943651ce-card-icon-glow" cx="50%" cy="35%" r="62%">
      <stop offset="0%" stop-color="var(--inverse-text)" stop-opacity="0.22"/>
      <stop offset="100%" stop-color="var(--background)" stop-opacity="0"/>
    </radialGradient>
  </defs>
  <rect width="100%" height="100%" fill="var(--background)" id="CANVAS_BG"/>
  <rect width="100%" height="100%" fill="url(#svg943651ce-napkin-hatch)"/>
  <rect id="UNIVERSAL_EDGE_VIGNETTE" width="100%" height="100%" fill="url(#svg943651ce-universal-edge-vignette)" opacity="0.62"/>
  <text id="TITLE" x="960.0" y="59" font-size="48" font-weight="700" fill="#0f172a" text-anchor="middle" style="font-size: 60px; font-family: Inter, Segoe UI, Kalam, Roboto, Helvetica, Arial, sans-serif; font-weight: 700; letter-spacing:-1.2px;" data-final-font-size="60">
    <tspan x="960.0" dy="68.00px">Types of AI Citation Failures</tspan>
  </text>
  <rect id="TITLE_FRAME" x="134" y="25" width="1652" height="70" fill="none"/>
  <g id="DIAGRAM_MAIN">
    <rect id="ITEM_1_BG" x="485" y="170" width="480" height="410" rx="16" fill="var(--accent-3)" stroke="var(--accent-1)" stroke-width="2" filter="url(#svg943651ce-shadow)" fill-opacity="1.0"/>
    <rect x="485" y="170" width="480" height="410" rx="16" fill="url(#svg943651ce-card-panel-sheen)" opacity="0.88"/>
    <rect x="485" y="186" width="460" height="12" fill="var(--accent-1)"/>
    <rect id="ITEM_1_HEAD_FRAME" x="500" y="288" width="450" height="96" fill="none"/>
    <rect id="ITEM_1_BODY_FRAME" x="500" y="382" width="450" height="168" fill="none"/>
    <circle id="ITEM_1_PAD" cx="715" cy="231" r="55" fill="var(--icon-pad-bg)" stroke="var(--primary-text)" opacity="0.9" fill-opacity="0.9" stroke-width="2"/>
    <circle cx="715" cy="231" r="44" fill="none" stroke="var(--accent-1)" stroke-width="3" stroke-dasharray="6 4"/>
    <circle id="ITEM_1_BADGE" cx="715" cy="231" r="43" fill="var(--accent-1)" stroke="var(--background)" stroke-width="4" fill-opacity="0.35" opacity="0.85" stroke-opacity="0.75"/>
    <g id="ITEM_1_ICON" transform="translate(682, 198)" data-icon-size="66">
      <g transform="translate(-16.028571428571425,-16.028571428571425) scale(3.064285714285714)" vector-effect="non-scaling-stroke" fill="#ffffff" fill-opacity="1.0" stroke="none">
        <path fill="#ffffff" d="m25.7 9.3l-7-7c-.2-.2-.4-.3-.7-.3H8c-1.1 0-2 .9-2 2v24c0 1.1.9 2 2 2h16c1.1 0 2-.9 2-2V10c0-.3-.1-.5-.3-.7M18 4.4l5.6 5.6H18zM24 28H8V4h8v6c0 1.1.9 2 2 2h6z" vector-effect="non-scaling-stroke" stroke="none"/>
        <path fill="#ffffff" d="M10 22h12v2H10zm0-6h12v2H10z" vector-effect="non-scaling-stroke" stroke="none"/>
      </g>
    </g>
    <text id="ITEM_1_HEAD" x="725.0" y="288.0" font-weight="700" font-size="26" fill="var(--inverse-text)" text-anchor="middle" data-bg-id="ITEM_1_BG" fill-opacity="1.0" style="font-size: 30px; font-family: Inter, Segoe UI, Kalam, Roboto, Helvetica, Arial, sans-serif; font-weight: 700; letter-spacing:-0.4px;" data-final-font-size="30">
      <tspan x="725.0" dy="56.25px">Invented Sources</tspan>
    </text>
    <text id="ITEM_1_BODY" x="725.0" y="382.0" font-size="21" fill="var(--inverse-text)" text-anchor="middle" data-bg-id="ITEM_1_BG" style="font-size: 26px; font-family: Inter, Segoe UI, Kalam, Roboto, Helvetica, Arial, sans-serif; font-weight: 400;" data-final-font-size="26">
      <tspan x="725.0" dy="42.44px">AI generates papers and reports</tspan>
      <tspan x="725.0" dy="29.90px">that never existed</tspan>
    </text>
    <rect id="ITEM_2_BG" x="975" y="170" width="480" height="410" rx="16" fill="var(--accent-4)" stroke="var(--accent-2)" stroke-width="2" filter="url(#svg943651ce-shadow)" fill-opacity="1.0"/>
    <rect x="975" y="170" width="480" height="410" rx="16" fill="url(#svg943651ce-card-panel-sheen)" opacity="0.88"/>
    <rect x="975" y="186" width="460" height="12" fill="var(--accent-2)"/>
    <rect id="ITEM_2_HEAD_FRAME" x="990" y="288" width="450" height="96" fill="none"/>
    <rect id="ITEM_2_BODY_FRAME" x="990" y="382" width="450" height="168" fill="none"/>
    <circle id="ITEM_2_PAD" cx="1205" cy="231" r="55" fill="var(--icon-pad-bg)" stroke="var(--primary-text)" opacity="0.9" fill-opacity="0.9" stroke-width="2"/>
    <circle cx="1205" cy="231" r="44" fill="none" stroke="var(--accent-2)" stroke-width="3" stroke-dasharray="6 4"/>
    <circle id="ITEM_2_BADGE" cx="1205" cy="231" r="43" fill="var(--accent-2)" stroke="var(--background)" stroke-width="4" fill-opacity="0.35" opacity="0.85" stroke-opacity="0.75"/>
    <g id="ITEM_2_ICON" transform="translate(1172, 198)" data-icon-size="66">
      <g transform="translate(-13.535593220338981,-13.535593220338981) scale(3.877966101694915)" vector-effect="non-scaling-stroke" stroke-width="2.50" stroke-linecap="round" stroke-linejoin="round" stroke-opacity="1.0">
        <ellipse cx="12" cy="5" rx="9" ry="3" vector-effect="non-scaling-stroke" fill="none" stroke="#ffffff"/>
        <path d="M3 5V19A9 3 0 0 0 21 19V5" vector-effect="non-scaling-stroke" fill="none" stroke="#ffffff"/>
        <path d="M3 12A9 3 0 0 0 21 12" vector-effect="non-scaling-stroke" fill="none" stroke="#ffffff"/>
      </g>
    </g>
    <text id="ITEM_2_HEAD" x="1215.0" y="288.0" font-weight="700" font-size="26" fill="var(--primary-text)" text-anchor="middle" data-bg-id="ITEM_2_BG" fill-opacity="1.0" style="font-size: 30px; font-family: Inter, Segoe UI, Kalam, Roboto, Helvetica, Arial, sans-serif; font-weight: 700; letter-spacing:-0.4px;" data-final-font-size="30">
      <tspan x="1215.0" dy="56.25px">Mutated Sources</tspan>
    </text>
    <text id="ITEM_2_BODY" x="1215.0" y="382.0" font-size="21" fill="var(--primary-text)" text-anchor="middle" data-bg-id="ITEM_2_BG" style="font-size: 26px; font-family: Inter, Segoe UI, Kalam, Roboto, Helvetica, Arial, sans-serif; font-weight: 400;" data-final-font-size="26">
      <tspan x="1215.0" dy="42.44px">Real authors are paired</tspan>
      <tspan x="1215.0" dy="29.90px">with incorrect paper titles</tspan>
    </text>
    <rect id="ITEM_3_BG" x="485" y="600" width="480" height="410" rx="16" fill="var(--accent-5)" stroke="var(--accent-3)" stroke-width="2" filter="url(#svg943651ce-shadow)" fill-opacity="1.0"/>
    <rect x="485" y="600" width="480" height="410" rx="16" fill="url(#svg943651ce-card-panel-sheen)" opacity="0.88"/>
    <rect x="485" y="616" width="460" height="12" fill="var(--accent-3)"/>
    <rect id="ITEM_3_HEAD_FRAME" x="500" y="718" width="450" height="96" fill="none"/>
    <rect id="ITEM_3_BODY_FRAME" x="500" y="812" width="450" height="168" fill="none"/>
    <circle id="ITEM_3_PAD" cx="715" cy="661" r="55" fill="var(--icon-pad-bg)" stroke="var(--primary-text)" opacity="0.9" fill-opacity="0.9" stroke-width="2"/>
    <circle cx="715" cy="661" r="44" fill="none" stroke="var(--accent-3)" stroke-width="3" stroke-dasharray="6 4"/>
    <circle id="ITEM_3_BADGE" cx="715" cy="661" r="43" fill="var(--accent-3)" stroke="var(--background)" stroke-width="4" fill-opacity="0.35" opacity="0.85" stroke-opacity="0.75"/>
    <g id="ITEM_3_ICON" transform="translate(682, 628)" data-icon-size="66">
      <g transform="translate(-16.028571428571425,-16.028571428571425) scale(3.064285714285714)">
        <path d="M6.51643 18.0405C8.57003 15.9865 11.9034 15.9865 13.957 18.0405C16.0106 20.0945 16.018 23.4212 13.957 25.4826L10.9808 28.4595C8.92718 30.5135 5.5938 30.5135 3.5402 28.4595C1.4866 26.4055 1.4866 23.0714 3.5402 21.0174L6.51643 18.0405ZM11.7248 23.25C12.5433 22.4314 12.5433 21.0918 11.7248 20.2732C10.9064 19.4545 9.57451 19.4471 8.7486 20.2732L5.77237 23.25C4.95391 24.0686 4.95391 25.4082 5.77237 26.2268C6.59084 27.0455 7.93014 27.0455 8.7486 26.2268L11.7248 23.25Z" fill="#9B9B9B"/>
        <path d="M21.0164 3.54052C23.07 1.48649 26.4034 1.48649 28.457 3.54052C30.5106 5.59454 30.518 8.92117 28.457 10.9826L25.4808 13.9595C23.4272 16.0135 20.0938 16.0135 18.0402 13.9595C15.9866 11.9055 15.9866 8.57139 18.0402 6.51736L21.0164 3.54052ZM26.2248 8.75C27.0433 7.93137 27.0433 6.59179 26.2248 5.77315C25.4064 4.95452 24.0745 4.94708 23.2486 5.77315L20.2724 8.75C19.4539 9.56863 19.4539 10.9082 20.2724 11.7268C21.0908 12.5455 22.4301 12.5455 23.2486 11.7268L26.2248 8.75Z" fill="#9B9B9B"/>
        <path d="M10.7975 4.03024C11.3333 3.89562 11.8762 4.22302 12.0101 4.7615L12.9699 7.72593C13.1038 8.26441 12.7781 8.81006 12.2423 8.94468C11.7066 9.0793 11.1637 8.75191 11.0297 8.21343L10.0699 5.249C9.93598 4.71052 10.2617 4.16486 10.7975 4.03024Z" fill="#417AFF"/>
        <path d="M5.70723 5.24901C5.31673 4.85653 4.68359 4.85653 4.29309 5.24901C3.90258 5.64149 3.90258 6.27782 4.29309 6.67031L8.29289 10.6903C8.68339 11.0828 9.31653 11.0828 9.70703 10.6903C10.0975 10.2979 10.0975 9.66153 9.70703 9.26905L5.70723 5.24901Z" fill="#417AFF"/>
        <path d="M4.27492 11.0234C3.74391 10.8709 3.19045 11.1799 3.03873 11.7136C2.88701 12.2473 3.19449 12.8036 3.7255 12.9561L7.22533 13.9611C7.75634 14.1136 8.30979 13.8045 8.46151 13.2708C8.61323 12.7371 8.30575 12.1809 7.77474 12.0284L4.27492 11.0234Z" fill="#417AFF"/>
        <path d="M21.2025 27.9698C20.6667 28.1044 20.1238 27.777 19.9899 27.2385L19.0301 24.2741C18.8962 23.7356 19.2219 23.1899 19.7577 23.0553C20.2934 22.9207 20.8363 23.2481 20.9703 23.7866L21.9301 26.751C22.064 27.2895 21.7383 27.8351 21.2025 27.9698Z" fill="#417AFF"/>
        <path d="M26.2928 26.751C26.6833 27.1435 27.3164 27.1435 27.7069 26.751C28.0974 26.3585 28.0974 25.7222 27.7069 25.3297L23.7071 21.3097C23.3166 20.9172 22.6835 20.9172 22.293 21.3097C21.9025 21.7021 21.9025 22.3385 22.293 22.7309L26.2928 26.751Z" fill="#417AFF"/>
        <path d="M27.7251 20.9766C28.2561 21.1291 28.8096 20.8201 28.9613 20.2864C29.113 19.7527 28.8055 19.1964 28.2745 19.0439L24.7747 18.0389C24.2437 17.8864 23.6902 18.1955 23.5385 18.7292C23.3868 19.2629 23.6942 19.8191 24.2253 19.9716L27.7251 20.9766Z" fill="#417AFF"/>
        <path d="M16.0042 13.9588L18.2532 16.2079L22.1792 12.2819C22.8014 11.6596 22.8014 10.6551 22.1792 10.0328C21.557 9.41061 20.5524 9.41061 19.9302 10.0328L16.0042 13.9588Z" fill="#BEBEBE"/>
        <ellipse cx="17.1285" cy="15.0822" rx="1.59092" ry="1.20259" transform="rotate(45.1559 17.1285 15.0822)" fill="#D9D9D9"/>
        <path fill-rule="evenodd" clip-rule="evenodd" d="M15.3742 19.0513C15.392 19.0361 15.4094 19.0201 15.4261 19.0034C15.8971 18.5351 15.7765 17.6504 15.1569 17.0274C14.5373 16.4044 13.6533 16.2791 13.1824 16.7474C13.1677 16.762 13.1536 16.777 13.1401 16.7924L13.1376 16.7898L9.89396 20.0337C9.27173 20.656 9.27173 21.6605 9.89396 22.2828C10.5162 22.905 11.5283 22.8975 12.143 22.2828L15.3742 19.0513Z" fill="#BEBEBE"/>
      </g>
    </g>
    <text id="ITEM_3_HEAD" x="725.0" y="718.0" font-weight="700" font-size="26" fill="var(--primary-text)" text-anchor="middle" data-bg-id="ITEM_3_BG" fill-opacity="1.0" style="font-size: 30px; font-family: Inter, Segoe UI, Kalam, Roboto, Helvetica, Arial, sans-serif; font-weight: 700; letter-spacing:-0.4px;" data-final-font-size="30">
      <tspan x="725.0" dy="56.25px">Dead Links</tspan>
    </text>
    <text id="ITEM_3_BODY" x="725.0" y="812.0" font-size="21" fill="var(--primary-text)" text-anchor="middle" data-bg-id="ITEM_3_BG" style="font-size: 26px; font-family: Inter, Segoe UI, Kalam, Roboto, Helvetica, Arial, sans-serif; font-weight: 400;" data-final-font-size="26">
      <tspan x="725.0" dy="42.44px">URLs lead to non-existent pages</tspan>
      <tspan x="725.0" dy="29.90px">or broken directories</tspan>
    </text>
    <rect id="ITEM_4_BG" x="975" y="600" width="480" height="410" rx="16" fill="var(--accent-6)" stroke="var(--accent-4)" stroke-width="2" filter="url(#svg943651ce-shadow)" fill-opacity="1.0"/>
    <rect x="975" y="600" width="480" height="410" rx="16" fill="url(#svg943651ce-card-panel-sheen)" opacity="0.88"/>
    <rect x="975" y="616" width="460" height="12" fill="var(--accent-4)"/>
    <rect id="ITEM_4_HEAD_FRAME" x="990" y="718" width="450" height="96" fill="none"/>
    <rect id="ITEM_4_BODY_FRAME" x="990" y="812" width="450" height="168" fill="none"/>
    <circle id="ITEM_4_PAD" cx="1205" cy="661" r="55" fill="var(--icon-pad-bg)" stroke="var(--primary-text)" opacity="0.9" fill-opacity="0.9" stroke-width="2"/>
    <circle cx="1205" cy="661" r="44" fill="none" stroke="var(--accent-4)" stroke-width="3" stroke-dasharray="6 4"/>
    <circle id="ITEM_4_BADGE" cx="1205" cy="661" r="43" fill="var(--accent-4)" stroke="var(--background)" stroke-width="4" fill-opacity="0.35" opacity="0.85" stroke-opacity="0.75"/>
    <g id="ITEM_4_ICON" transform="translate(1172, 628)" data-icon-size="66">
      <g transform="translate(-16.028571428571425,-19.092857142857138) scale(3.064285714285714)">
        <path d="M17.0454 27.2857H30V13C30 11.8954 29.1045 11 28 11H17.0454V27.2857Z" fill="#00A6ED"/>
        <path d="M15.6818 27.9642H30V29.3214H15.6818V27.9642Z" fill="#D3D3D3"/>
        <path d="M16.0227 11C15.4579 11 15 11.4557 15 12.0179V28.6429H15.6818C15.6818 28.2681 15.9871 27.9643 16.3636 27.9643H17.0455V11H16.0227Z" fill="#0074BA"/>
        <path d="M16.0227 27.2858C15.4579 27.2858 15 27.7415 15 28.3036V28.9822C15 29.5443 15.4579 30.0001 16.0227 30.0001H28.9773C29.4226 30.0001 29.8014 29.7168 29.9418 29.3215H16.3636C15.9871 29.3215 15.6818 29.0177 15.6818 28.6429C15.6818 28.2681 15.9871 27.9643 16.3636 27.9643H30V27.2858H16.0227Z" fill="#0074BA"/>
        <path d="M10.0454 23.2857H23V9C23 7.89543 22.1045 7 21 7H10.0454V23.2857Z" fill="#CA0B4A"/>
        <path d="M8.68182 23.9642H23V25.3214H8.68182V23.9642Z" fill="#D3D3D3"/>
        <path d="M9.02273 7C8.45789 7 8 7.45571 8 8.01786V24.6429H8.68182C8.68182 24.2681 8.98708 23.9643 9.36364 23.9643H10.0455V7H9.02273Z" fill="#990838"/>
        <path d="M9.02273 23.2858C8.45789 23.2858 8 23.7415 8 24.3036V24.9822C8 25.5443 8.45789 26.0001 9.02273 26.0001H21.9773C22.4226 26.0001 22.8014 25.7168 22.9418 25.3215H9.36364C8.98708 25.3215 8.68182 25.0177 8.68182 24.6429C8.68182 24.2681 8.98708 23.9643 9.36364 23.9643H23V23.2858H9.02273Z" fill="#990838"/>
        <path d="M4.04541 20.2857H17V6C17 4.89543 16.1045 4 15 4H4.04541V20.2857Z" fill="#86D72F"/>
        <path d="M2.68182 20.9642H17V22.3214H2.68182V20.9642Z" fill="#D3D3D3"/>
        <path d="M3.02273 4C2.45789 4 2 4.45571 2 5.01786V21.6429H2.68182C2.68182 21.2681 2.98708 20.9643 3.36364 20.9643H4.04545V4H3.02273Z" fill="#44911B"/>
        <path d="M3.02273 20.2858C2.45789 20.2858 2 20.7415 2 21.3036V21.9822C2 22.5443 2.45789 23.0001 3.02273 23.0001H15.9773C16.4226 23.0001 16.8014 22.7168 16.9418 22.3215H3.36364C2.98708 22.3215 2.68182 22.0177 2.68182 21.6429C2.68182 21.2681 2.98708 20.9643 3.36364 20.9643H17V20.2858H3.02273Z" fill="#008463"/>
      </g>
    </g>
    <text id="ITEM_4_HEAD" x="1215.0" y="718.0" font-weight="700" font-size="26" fill="var(--inverse-text)" text-anchor="middle" data-bg-id="ITEM_4_BG" fill-opacity="1.0" style="font-size: 30px; font-family: Inter, Segoe UI, Kalam, Roboto, Helvetica, Arial, sans-serif; font-weight: 700; letter-spacing:-0.4px;" data-final-font-size="30">
      <tspan x="1215.0" dy="56.25px">Fake Bibliographies</tspan>
    </text>
    <text id="ITEM_4_BODY" x="1215.0" y="812.0" font-size="21" fill="var(--inverse-text)" text-anchor="middle" data-bg-id="ITEM_4_BG" style="font-size: 26px; font-family: Inter, Segoe UI, Kalam, Roboto, Helvetica, Arial, sans-serif; font-weight: 400;" data-final-font-size="26">
      <tspan x="1215.0" dy="42.44px">Long lists of references create</tspan>
      <tspan x="1215.0" dy="29.90px">a false sense of rigor</tspan>
    </text>
  </g>
</svg>
