<?xml version='1.0' encoding='utf-8'?>
<svg xmlns="http://www.w3.org/2000/svg" width="1920" height="1080" viewBox="0 0 1920 1080" data-theme="dark">
  <style>
        @font-face {
            font-family: 'Inter';
            src: url('assets/fonts/Inter-Regular.ttf') format('truetype');
            font-weight: 400;
            font-style: normal;
            font-display: swap;
        }
        @font-face {
            font-family: 'Inter';
            src: url('assets/fonts/Inter-Bold.ttf') format('truetype');
            font-weight: 600;
            font-style: normal;
            font-display: swap;
        }
        @font-face {
            font-family: 'Inter';
            src: url('assets/fonts/Inter-Bold.ttf') format('truetype');
            font-weight: 800;
            font-style: normal;
            font-display: swap;
        }
        
:root {
    --background: #0f172a;
    --panel: #1e293b;
    --primary-text: #f1f5f9;
    --muted-text: #94a3b8;
    --inverse-text: #0f172a;
    --border: #334155;
    --shadow-color: #000000;
    --icon-pad-bg: #1e293b;
    --art-glow: #7dd3fc;
    --art-glow-opacity: 0.18;
    --art-sheen: #ffffff;
    --art-sheen-opacity: 0.18;
    --art-shadow: #000000;
    --art-shadow-opacity: 0.28;
    --art-muted-line: #64748b;
    --art-panel-tint: #1e293b;
    --font-family: 'Inter', 'Segoe UI', 'Kalam', Roboto, Helvetica, Arial, sans-serif;
    --radius-xl: 16px;
    --font-family-headline: 'Inter', 'Segoe UI', 'Kalam', Roboto, Helvetica, Arial, sans-serif;
    --font-family-body: 'Inter', 'Segoe UI', 'Kalam', Roboto, Helvetica, Arial, sans-serif;
    --font-heading: 'Inter', 'Segoe UI', 'Kalam', Roboto, Helvetica, Arial, sans-serif;
    --font-body: 'Inter', 'Segoe UI', 'Kalam', Roboto, Helvetica, Arial, sans-serif;
    --font-size-h1: 56px;
    --font-size-h2: 40px;
    --font-size-h3: 28px;
    --font-size-body: 24px;
    --font-size-caption: 18px;
    --secondary-text: var(--muted-text);
    --panel-border: var(--border);
    --font-weight-normal: 400;
    --font-weight-medium: 500;
    --font-weight-semibold: 600;
    --font-weight-bold: 700;
    --spacing-gutter-pct: 0.07;
    --spacing-top-pct: 0.15;
    --spacing-bottom-pct: 0.07;
    --spacing-title-y-pct: 0.055;
    --accent-1: #fbbf24;
    --accent-2: #fb923c;
    --accent-3: #f87171;
    --accent-4: #a3e635;
    --accent-5: #4ade80;
    --accent-6: #d4a574;
}
:root[data-theme="dark"] {
    --background: #0f172a;
    --panel: #1e293b;
    --primary-text: #f1f5f9;
    --muted-text: #94a3b8;
    --inverse-text: #0f172a;
    --border: #334155;
    --shadow-color: #000000;
    --icon-pad-bg: #1e293b;
    --art-glow: #7dd3fc;
    --art-glow-opacity: 0.18;
    --art-sheen: #ffffff;
    --art-sheen-opacity: 0.18;
    --art-shadow: #000000;
    --art-shadow-opacity: 0.28;
    --art-muted-line: #64748b;
    --art-panel-tint: #1e293b;
    --accent-1: #fbbf24;
    --accent-2: #fb923c;
    --accent-3: #f87171;
    --accent-4: #a3e635;
    --accent-5: #4ade80;
    --accent-6: #d4a574;
}
:root[data-theme="light"] {
    --background: #f8fafc;
    --panel: #ffffff;
    --primary-text: #0f172a;
    --muted-text: #64748b;
    --inverse-text: #ffffff;
    --border: #e2e8f0;
    --shadow-color: #000000;
    --icon-pad-bg: #1e293b;
    --art-glow: #0891b2;
    --art-glow-opacity: 0.10;
    --art-sheen: #ffffff;
    --art-sheen-opacity: 0.34;
    --art-shadow: #0f172a;
    --art-shadow-opacity: 0.14;
    --art-muted-line: #94a3b8;
    --art-panel-tint: #f1f5f9;
    --accent-1: #d97706;
    --accent-2: #ea580c;
    --accent-3: #dc2626;
    --accent-4: #65a30d;
    --accent-5: #16a34a;
    --accent-6: #92400e;
}</style>
  <rect x="0" y="0" width="1.92E+3" height="1.08E+3" fill="#252a34" stroke="none" id="programmatic_background"/>
  <line id="HEADER_DECOR" x1="960.0" x2="1080.0" y1="135.0" y2="135.0" stroke="var(--accent-1)" stroke-width="6" stroke-linecap="round"/>
  <defs>
    <pattern id="svg14d75944-napkin-hatch" patternUnits="userSpaceOnUse" width="12" height="12">
      <path d="M -3 12 L 12 -3 M 0 15 L 15 0" fill="none" stroke="var(--primary-text)" stroke-width="1" stroke-opacity="0.05"/>
    </pattern>
    <filter id="svg14d75944-soft-shadow" x="-30%" y="-30%" width="160%" height="160%">
      <feDropShadow dx="0" dy="3" stdDeviation="6" flood-color="#000000" flood-opacity="0.20"/>
    </filter>
    <radialGradient id="svg14d75944-universal-edge-vignette" cx="50%" cy="50%" r="72%">
      <stop offset="0%" stop-color="var(--background)" stop-opacity="0"/>
      <stop offset="72%" stop-color="var(--background)" stop-opacity="0.12"/>
      <stop offset="100%" stop-color="var(--primary-text)" stop-opacity="0.08"/>
    </radialGradient>
    <linearGradient id="svg14d75944-universal-surface-sheen" x1="0%" y1="0%" x2="100%" y2="100%">
      <stop offset="0%" stop-color="var(--art-sheen)" stop-opacity="var(--art-sheen-opacity)"/>
      <stop offset="46%" stop-color="var(--art-sheen)" stop-opacity="0.035"/>
      <stop offset="100%" stop-color="var(--art-panel-tint)" stop-opacity="0.14"/>
    </linearGradient>
    <radialGradient id="svg14d75944-universal-icon-aura" cx="50%" cy="42%" r="64%">
      <stop offset="0%" stop-color="var(--art-glow)" stop-opacity="var(--art-glow-opacity)"/>
      <stop offset="100%" stop-color="var(--background)" stop-opacity="0"/>
    </radialGradient>
    <filter id="svg14d75944-text-glow" x="-20%" y="-20%" width="140%" height="140%">
      <feDropShadow dx="0" dy="0" stdDeviation="2" flood-color="#000000" flood-opacity="0.4"/>
    </filter>
    <filter id="svg14d75944-shadow" x="-30%" y="-30%" width="160%" height="160%">
      <feDropShadow dx="0" dy="2" stdDeviation="3" flood-color="#000000" flood-opacity="0.08"/>
      <feDropShadow dx="0" dy="6" stdDeviation="10" flood-color="#000000" flood-opacity="0.12"/>
    </filter>
    <marker id="svg14d75944-arrowhead" markerWidth="10" markerHeight="7" refX="9" refY="3.5" orient="auto" markerUnits="strokeWidth">
      <polygon points="0 0, 10 3.5, 0 7" fill="var(--muted-text)" opacity="0.6"/>
    </marker>
  </defs>
  <rect id="CANVAS_BG" width="100%" height="100%" fill="var(--background)"/>
  <rect width="100%" height="100%" fill="url(#svg14d75944-napkin-hatch)"/>
  <rect id="UNIVERSAL_EDGE_VIGNETTE" width="100%" height="100%" fill="url(#svg14d75944-universal-edge-vignette)" opacity="0.62"/>
  <text id="TITLE" x="960.0" y="59" text-anchor="middle" font-size="56" font-weight="800" fill="#f1f5f9" style="font-size: 60px; font-family: Inter, Segoe UI, Kalam, Roboto, Helvetica, Arial, sans-serif; font-weight: 700; letter-spacing:-1.2px;" data-final-font-size="60">
    <tspan x="960.0" dy="68.00px">Cynicism vs Critical Thinking</tspan>
  </text>
  <rect id="TITLE_FRAME" x="134" y="59" width="1652" height="103" fill="none"/>
  <line x1="687.0" y1="434.0" x2="768.0" y2="434.0" stroke="var(--muted-text)" stroke-width="4" stroke-dasharray="10 9" opacity="0.8"/>
  <circle cx="727.5" cy="434.0" r="34" fill="var(--panel)" stroke="var(--muted-text)" stroke-width="2"/>
  <text x="727.5" y="444.0" text-anchor="middle" font-size="34" font-weight="900" fill="var(--muted-text)">VS</text>
  <line x1="1152.0" y1="434.0" x2="1233.0" y2="434.0" stroke="var(--muted-text)" stroke-width="4" stroke-dasharray="10 9" opacity="0.8"/>
  <circle cx="1192.5" cy="434.0" r="34" fill="var(--panel)" stroke="var(--muted-text)" stroke-width="2"/>
  <text x="1192.5" y="444.0" text-anchor="middle" font-size="34" font-weight="900" fill="var(--muted-text)">VS</text>
  <line x1="882.0" y1="824.0" x2="1038.0" y2="824.0" stroke="var(--muted-text)" stroke-width="4" stroke-dasharray="10 9" opacity="0.8"/>
  <circle cx="960.0" cy="824.0" r="34" fill="var(--panel)" stroke="var(--muted-text)" stroke-width="2"/>
  <text x="960.0" y="834.0" text-anchor="middle" font-size="34" font-weight="900" fill="var(--muted-text)">VS</text>
  <g transform="translate(495.0, 280.0)" filter="url(#svg14d75944-soft-shadow)">
    <rect id="ITEM_1_BG" x="-200.0" y="0" width="400.0" height="360" rx="26" fill="var(--panel)" fill-opacity="0.95" stroke="var(--accent-1)" stroke-width="3"/>
    <rect x="-184.0" y="12" width="368.0" height="8" rx="4" fill="var(--accent-1)" fill-opacity="0.55"/>
    <circle id="ITEM_1_PAD" cx="0" cy="74" r="46" fill="var(--icon-pad-bg)" stroke="var(--primary-text)" opacity="0.9" fill-opacity="0.9" stroke-width="2"/>
    <circle id="ITEM_1_PAD_INNER" cx="0" cy="74" r="35.88" fill="var(--accent-3)" fill-opacity="0.22"/>
    <circle cx="0" cy="74" r="36" fill="none" stroke="var(--accent-1)" stroke-width="3" stroke-dasharray="6 4"/>
    <g id="ITEM_1_ICON" transform="translate(-34, 40)" data-icon-size="68" stroke-dasharray="6 4">
      <g transform="translate(-13.840000000000003,-13.840000000000003) scale(3.986666666666667)" vector-effect="non-scaling-stroke" stroke-width="2.53" stroke-linecap="round" stroke-linejoin="round" stroke-opacity="1.0">
        <path d="M12 12m-3 0a3 3 0 1 0 6 0a3 3 0 1 0 -6 0" vector-effect="non-scaling-stroke" fill="none" stroke="#f1f5f9"/>
        <path d="M4 4m0 2a2 2 0 0 1 2 -2h12a2 2 0 0 1 2 2v12a2 2 0 0 1 -2 2h-12a2 2 0 0 1 -2 -2z" vector-effect="non-scaling-stroke" fill="none" stroke="#f1f5f9"/>
      </g>
    </g>
    <text id="ITEM_1_HEAD" x="0.0" y="138.0" text-anchor="middle" font-size="44" font-weight="800" fill="var(--accent-3)" data-bg-id="ITEM_1_BG" fill-opacity="1.0" stroke="none" style="font-size: 30px; font-family: Inter, Segoe UI, Kalam, Roboto, Helvetica, Arial, sans-serif; font-weight: 700; letter-spacing:-0.4px;" data-final-font-size="30">
      <tspan x="0.0" dy="42.25px">Cynical Assumption</tspan>
    </text>
    <rect id="ITEM_1_HEAD_FRAME" x="-165.0" y="138" width="330.0" height="68" fill="none"/>
    <text id="ITEM_1_BODY" x="0.0" y="206.0" text-anchor="middle" font-size="27" fill="var(--primary-text)" data-bg-id="ITEM_1_BG" style="font-size: 26px; font-family: Inter, Segoe UI, Kalam, Roboto, Helvetica, Arial, sans-serif; font-weight: 400;" data-final-font-size="26">
      <tspan x="0.0" dy="39.64px">Treats any revision</tspan>
      <tspan x="0.0" dy="29.90px">as evidence of a cover-up</tspan>
    </text>
    <rect id="ITEM_1_BODY_FRAME" x="-190.0" y="206" width="380" height="154" fill="none"/>
  </g>
  <g transform="translate(960.0, 280.0)" filter="url(#svg14d75944-soft-shadow)">
    <rect id="ITEM_2_BG" x="-200.0" y="0" width="400.0" height="360" rx="26" fill="var(--panel)" fill-opacity="0.95" stroke="var(--accent-2)" stroke-width="3"/>
    <rect x="-184.0" y="12" width="368.0" height="8" rx="4" fill="var(--accent-2)" fill-opacity="0.55"/>
    <circle id="ITEM_2_PAD" cx="0" cy="74" r="46" fill="var(--icon-pad-bg)" stroke="var(--primary-text)" opacity="0.9" fill-opacity="0.9" stroke-width="2"/>
    <circle id="ITEM_2_PAD_INNER" cx="0" cy="74" r="35.88" fill="var(--accent-4)" fill-opacity="0.22"/>
    <circle cx="0" cy="74" r="36" fill="none" stroke="var(--accent-2)" stroke-width="3" stroke-dasharray="6 4"/>
    <g id="ITEM_2_ICON" transform="translate(-34, 40)" data-icon-size="68" stroke-dasharray="6 4">
      <g transform="translate(-7.051891891891895,-10.284324324324329) scale(0.16162162162162164)" vector-effect="non-scaling-stroke" fill="#f1f5f9" fill-opacity="1.0" stroke="none">
        <path fill="#f1f5f9" d="M281.293 94.283a9 9 0 0 1-.23.203c-.027.023-.048.046-.073.07c.113-.103.143-.126.303-.273m.754.62c-.922-.026-1.59.26-1.79.333c-18.276 16.014-26.02 33.42-43.35 51.993c-17.25 18.485-43.688 36.204-96.677 51.225l-31.087 42.13a9 9 0 0 1-7.163 3.657l-50.75.45l-14.69-8.344l-2.622 119.744l14.603-8.426h57.28a9 9 0 0 1 6.934 3.264c13.526 16.35 20.025 32.04 37.946 39.838l200.556 61.878c12.478-.538 22.443-2.015 28.625-5.568c5.266-3.025 8.892-7.468 10.952-16.584c-5.457-2.305-23.53-9.945-47.185-19.853c-13.495-5.652-27.03-11.294-37.236-15.494c-5.103-2.1-9.382-3.842-12.37-5.027a161 161 0 0 0-3.397-1.317c-.208-.077-.253-.09-.367-.13c-.157.023-.3.105-1.897-.677c-.994-.486-4.692-10.586-4.692-10.588c0 0 5.642-6.027 6.47-6.234c2.54-.635 2.98-.25 3.483-.18c.2.028.253.05.388.074c.13.016.294.036.637.073c.89.095 2.327.236 4.183.41c3.713.345 9.13.827 15.67 1.397c13.082 1.14 30.68 2.633 48.37 4.112c17.69 1.477 35.475 2.942 48.945 4.03c6.734.544 12.392.992 16.406 1.3c2.006.155 3.606.275 4.702.352c.445.03.74.05 1 .065c7.954-.59 12.096-2.93 14.38-5.373c2.315-2.48 3.274-5.563 3.075-9.477c-.392-7.7-6.855-16.7-13.162-18.697l-125.047-16.39a9 9 0 0 1 .357-17.886s34.4-3.114 69.246-6.35c17.425-1.62 34.963-3.27 48.35-4.575c6.695-.654 12.355-1.22 16.42-1.652c2.03-.215 3.67-.397 4.798-.533c.516-.062 1.142-.195 1.516-.27c10.906-3.095 16.196-7.17 18.164-10.054c2.01-2.944 1.993-5.088.517-8.644c-2.946-7.1-15.285-15.783-23.27-16.322l-140.36-3.662a9 9 0 0 1-1.555-17.817s30.514-6.195 61.904-12.542c15.695-3.174 31.608-6.386 44.04-8.88c12.434-2.496 20.85-4.184 23.35-4.617c9.49-1.643 13.86-5.275 16.143-9.164c2.282-3.888 2.655-8.88.996-14.175c-2.902-9.267-11.46-17.814-23.172-18.067a26 26 0 0 0-5.204.422l-.19.03l-148.954 23.665c-7.51 10.38-14.5 15.897-23.953 22.977c-2.022 57.078-12.448 85.543-27.33 100.578c-15.283 15.436-34.4 14.424-40.335 15.908l-4.368-17.46c12.134-3.035 21.968-1.066 31.91-11.11s20.786-34.636 22.338-92.803a9 9 0 0 1 3.606-6.965c12.425-9.295 17.212-12.277 25.073-23.886l35.527-78.43c-1.064-7.994-5.013-11.687-9.64-13.893c-2.5-1.192-5.197-1.74-7.043-1.79z" vector-effect="non-scaling-stroke" stroke="none"/>
      </g>
    </g>
    <text id="ITEM_2_HEAD" x="0.0" y="138.0" text-anchor="middle" font-size="44" font-weight="800" fill="var(--accent-4)" data-bg-id="ITEM_2_BG" fill-opacity="1.0" stroke="none" style="font-size: 30px; font-family: Inter, Segoe UI, Kalam, Roboto, Helvetica, Arial, sans-serif; font-weight: 700; letter-spacing:-0.4px;" data-final-font-size="30">
      <tspan x="0.0" dy="42.25px">Critical Evaluation</tspan>
    </text>
    <rect id="ITEM_2_HEAD_FRAME" x="-165.0" y="138" width="330.0" height="68" fill="none"/>
    <text id="ITEM_2_BODY" x="0.0" y="206.0" text-anchor="middle" font-size="27" fill="var(--primary-text)" data-bg-id="ITEM_2_BG" style="font-size: 26px; font-family: Inter, Segoe UI, Kalam, Roboto, Helvetica, Arial, sans-serif; font-weight: 400;" data-final-font-size="26">
      <tspan x="0.0" dy="39.64px">Asks if the update</tspan>
      <tspan x="0.0" dy="29.90px">improves overall accuracy</tspan>
    </text>
    <rect id="ITEM_2_BODY_FRAME" x="-190.0" y="206" width="380" height="154" fill="none"/>
  </g>
  <g transform="translate(1425.0, 280.0)" filter="url(#svg14d75944-soft-shadow)">
    <rect id="ITEM_3_BG" x="-200.0" y="0" width="400.0" height="360" rx="26" fill="var(--panel)" fill-opacity="0.95" stroke="var(--accent-3)" stroke-width="3"/>
    <rect x="-184.0" y="12" width="368.0" height="8" rx="4" fill="var(--accent-3)" fill-opacity="0.55"/>
    <circle id="ITEM_3_PAD" cx="0" cy="74" r="46" fill="var(--icon-pad-bg)" stroke="var(--primary-text)" opacity="0.9" fill-opacity="0.9" stroke-width="2"/>
    <circle id="ITEM_3_PAD_INNER" cx="0" cy="74" r="35.88" fill="var(--accent-5)" fill-opacity="0.22"/>
    <circle cx="0" cy="74" r="36" fill="none" stroke="var(--accent-3)" stroke-width="3" stroke-dasharray="6 4"/>
    <g id="ITEM_3_ICON" transform="translate(-34, 40)" data-icon-size="68" stroke-dasharray="6 4">
      <g transform="translate(-3.9730000000000043,-4.272000000000003) scale(0.14950000000000002)" vector-effect="non-scaling-stroke" fill="#f1f5f9" fill-opacity="1.0" stroke="none">
        <path fill="#f1f5f9" d="M254.28 17.313c-81.048 0-146.624 65.484-146.624 146.406V236h49.594v-69.094c0-53.658 43.47-97.187 97.03-97.187c53.563 0 97.032 44.744 97.032 97.186V236h49.594v-72.28c0-78.856-65.717-146.407-146.625-146.407zM85.157 254.688c-14.61 22.827-22.844 49.148-22.844 76.78c0 88.358 84.97 161.5 191.97 161.5c106.998 0 191.968-73.142 191.968-161.5c0-27.635-8.26-53.95-22.875-76.78H85.155zM254 278.625c22.34 0 40.875 17.94 40.875 40.28c0 16.756-10.6 31.23-25.125 37.376l32.72 98.126h-96.376l32.125-98.125c-14.526-6.145-24.532-20.62-24.532-37.374c0-22.338 17.972-40.28 40.312-40.28z" vector-effect="non-scaling-stroke" stroke="none"/>
      </g>
    </g>
    <text id="ITEM_3_HEAD" x="0.0" y="138.0" text-anchor="middle" font-size="44" font-weight="800" fill="var(--accent-5)" data-bg-id="ITEM_3_BG" fill-opacity="1.0" stroke="none" style="font-size: 30px; font-family: Inter, Segoe UI, Kalam, Roboto, Helvetica, Arial, sans-serif; font-weight: 700; letter-spacing:-0.4px;" data-final-font-size="30">
      <tspan x="0.0" dy="42.25px">Deception Focus</tspan>
    </text>
    <rect id="ITEM_3_HEAD_FRAME" x="-165.0" y="138" width="330.0" height="68" fill="none"/>
    <text id="ITEM_3_BODY" x="0.0" y="206.0" text-anchor="middle" font-size="27" fill="var(--primary-text)" data-bg-id="ITEM_3_BG" style="font-size: 26px; font-family: Inter, Segoe UI, Kalam, Roboto, Helvetica, Arial, sans-serif; font-weight: 400;" data-final-font-size="26">
      <tspan x="0.0" dy="33.66px">Assumes institutions are</tspan>
      <tspan x="0.0" dy="29.90px">inherently dishonest or</tspan>
      <tspan x="0.0" dy="29.90px">manipulative</tspan>
    </text>
    <rect id="ITEM_3_BODY_FRAME" x="-190.0" y="206" width="380" height="154" fill="none"/>
  </g>
  <g transform="translate(690.0, 670.0)" filter="url(#svg14d75944-soft-shadow)">
    <rect id="ITEM_4_BG" x="-200.0" y="0" width="400.0" height="360" rx="26" fill="var(--panel)" fill-opacity="0.95" stroke="var(--accent-4)" stroke-width="3"/>
    <rect x="-184.0" y="12" width="368.0" height="8" rx="4" fill="var(--accent-4)" fill-opacity="0.55"/>
    <circle id="ITEM_4_PAD" cx="0" cy="74" r="46" fill="var(--icon-pad-bg)" stroke="var(--primary-text)" opacity="0.9" fill-opacity="0.9" stroke-width="2"/>
    <circle id="ITEM_4_PAD_INNER" cx="0" cy="74" r="35.88" fill="var(--accent-6)" fill-opacity="0.22"/>
    <circle cx="0" cy="74" r="36" fill="none" stroke="var(--accent-4)" stroke-width="3" stroke-dasharray="6 4"/>
    <g id="ITEM_4_ICON" transform="translate(-34, 40)" data-icon-size="68" stroke-dasharray="6 4">
      <g transform="translate(-7.005714285714289,-7.326071428571434) scale(2.562857142857143)">
        <path d="M4.71839 18.0233C5.11525 17.458 5.8952 17.3215 6.46045 17.7184L18.5318 26.1936L17.0946 28.2406L5.02328 19.7653C4.45803 19.3685 4.32152 18.5885 4.71839 18.0233Z" fill="#5092FF"/>
        <path d="M18.5013 2.80347C18.8302 2.3598 19.4615 2.25982 19.9114 2.58017L21.5841 3.77124C22.034 4.09158 22.1321 4.71094 21.8032 5.15461L13.1102 16.8809C12.4436 17.7801 11.1641 17.9827 10.2523 17.3335C9.34053 16.6842 9.14176 15.429 9.80835 14.5298L18.5013 2.80347Z" fill="#636363"/>
        <path d="M18.0472 3.66594C16.8384 3.31432 15.3804 3.86071 14.5971 4.91739L11.7749 8.7243L11.9999 10.0001L10.6024 10.306L10.3989 10.5805C9.07399 12.3677 9.47824 14.8692 11.3018 16.1677C13.1254 17.4662 15.6778 17.07 17.0027 15.2828L17.1623 15.0675L16.9999 13.5001H18.3242L18.4883 13.2787C21.992 13.9302 23.8684 16.851 23.963 19.8545C24.0149 21.5041 23.5209 23.1307 22.4806 24.3899C21.4537 25.6329 19.8112 26.6185 17.3793 26.8486C16.5451 26.9276 15.9304 27.6956 16.0062 28.564C16.082 29.4325 16.8197 30.0725 17.6539 29.9935C20.7829 29.6974 23.1847 28.3804 24.7802 26.4491C26.3624 24.5339 27.069 22.1145 26.9946 19.751C26.8719 15.8564 24.6058 11.9837 20.5048 10.5586L21.2008 9.61967C21.9842 8.56299 22.0639 7.03517 21.3491 6.01708L18.0472 3.66594Z" fill="#BEBEBE"/>
        <path d="M2 29.2C2 27.4327 3.43269 26 5.2 26H26.8C28.5673 26 30 27.4327 30 29.2C30 29.6418 29.6418 30 29.2 30H2.8C2.35817 30 2 29.6418 2 29.2Z" fill="#9B9B9B"/>
        <path d="M11.7757 8.70947L18.3343 13.4746L17.1588 15.0927L10.6001 10.3275L11.7757 8.70947Z" fill="#D3D3D3"/>
      </g>
    </g>
    <text id="ITEM_4_HEAD" x="0.0" y="138.0" text-anchor="middle" font-size="44" font-weight="800" fill="var(--accent-6)" data-bg-id="ITEM_4_BG" fill-opacity="1.0" stroke="none" style="font-size: 30px; font-family: Inter, Segoe UI, Kalam, Roboto, Helvetica, Arial, sans-serif; font-weight: 700; letter-spacing:-0.4px;" data-final-font-size="30">
      <tspan x="0.0" dy="42.25px">Evidence Focus</tspan>
    </text>
    <rect id="ITEM_4_HEAD_FRAME" x="-165.0" y="138" width="330.0" height="68" fill="none"/>
    <text id="ITEM_4_BODY" x="0.0" y="206.0" text-anchor="middle" font-size="27" fill="var(--primary-text)" data-bg-id="ITEM_4_BG" style="font-size: 26px; font-family: Inter, Segoe UI, Kalam, Roboto, Helvetica, Arial, sans-serif; font-weight: 400;" data-final-font-size="26">
      <tspan x="0.0" dy="39.64px">Analyzes the quality of the</tspan>
      <tspan x="0.0" dy="29.90px">provided explanation</tspan>
    </text>
    <rect id="ITEM_4_BODY_FRAME" x="-190.0" y="206" width="380" height="154" fill="none"/>
  </g>
  <g transform="translate(1230.0, 670.0)" filter="url(#svg14d75944-soft-shadow)">
    <rect id="ITEM_5_BG" x="-200.0" y="0" width="400.0" height="360" rx="26" fill="var(--panel)" fill-opacity="0.95" stroke="var(--accent-5)" stroke-width="3"/>
    <rect x="-184.0" y="12" width="368.0" height="8" rx="4" fill="var(--accent-5)" fill-opacity="0.55"/>
    <circle id="ITEM_5_PAD" cx="0" cy="74" r="46" fill="var(--icon-pad-bg)" stroke="var(--primary-text)" opacity="0.9" fill-opacity="0.9" stroke-width="2"/>
    <circle id="ITEM_5_PAD_INNER" cx="0" cy="74" r="35.88" fill="var(--accent-1)" fill-opacity="0.22"/>
    <circle cx="0" cy="74" r="36" fill="none" stroke="var(--accent-5)" stroke-width="3" stroke-dasharray="6 4"/>
    <g id="ITEM_5_ICON" transform="translate(-34, 40)" data-icon-size="68" stroke-dasharray="6 4">
      <g transform="translate(-7.005714285714292,-7.005714285714289) scale(2.562857142857143)">
        <path fill-rule="evenodd" clip-rule="evenodd" d="M13.0009 5C13.0009 5.8908 13.3868 6.68944 14.0009 7.23832V10H10.5009C9.67089 10 9.00089 10.67 9.00089 11.5C9.00089 12.33 9.67089 13 10.5009 13H14.0009V26.7763C11.3397 26.1708 9.12469 24.3837 7.94087 22L7.98088 21.9999C8.85088 21.9999 9.32088 20.9799 8.75088 20.3199L5.36088 16.3599C4.79088 15.6899 3.70088 16.0099 3.58088 16.8799L3.01088 20.8399C2.92088 21.4499 3.40088 21.9999 4.02088 21.9999L4.69087 22C6.33087 26.66 10.7709 30 16.0009 30C21.2309 30 25.6709 26.66 27.3109 22L27.9809 21.9999C28.6009 21.9999 29.0809 21.4499 28.9909 20.8399L28.4209 16.8799C28.3009 16.0099 27.2109 15.6899 26.6409 16.3599L23.2509 20.3199C22.6809 20.9799 23.1509 21.9999 24.0209 21.9999H24.0609C22.8771 24.3836 20.6621 26.1708 18.0009 26.7763V13H21.5009C22.3309 13 23.0009 12.33 23.0009 11.5C23.0009 10.67 22.3309 10 21.5009 10H18.0009V7.23832C18.615 6.68944 19.0009 5.8908 19.0009 5C19.0009 3.34 17.6609 2 16.0009 2C14.3409 2 13.0009 3.34 13.0009 5ZM15.0009 5C15.0009 4.45 15.4509 4 16.0009 4C16.5509 4 17.0009 4.45 17.0009 5C17.0009 5.55 16.5509 6 16.0009 6C15.4509 6 15.0009 5.55 15.0009 5Z" fill="#00A6ED"/>
      </g>
    </g>
    <text id="ITEM_5_HEAD" x="0.0" y="138.0" text-anchor="middle" font-size="44" font-weight="800" fill="var(--accent-1)" data-bg-id="ITEM_5_BG" fill-opacity="1.0" stroke="none" style="font-size: 30px; font-family: Inter, Segoe UI, Kalam, Roboto, Helvetica, Arial, sans-serif; font-weight: 700; letter-spacing:-0.4px;" data-final-font-size="30">
      <tspan x="0.0" dy="42.25px">Consistency Bias</tspan>
    </text>
    <rect id="ITEM_5_HEAD_FRAME" x="-165.0" y="138" width="330.0" height="68" fill="none"/>
    <text id="ITEM_5_BODY" x="0.0" y="206.0" text-anchor="middle" font-size="27" fill="var(--primary-text)" data-bg-id="ITEM_5_BG" style="font-size: 26px; font-family: Inter, Segoe UI, Kalam, Roboto, Helvetica, Arial, sans-serif; font-weight: 400;" data-final-font-size="26">
      <tspan x="0.0" dy="39.64px">Values unchanging statements</tspan>
      <tspan x="0.0" dy="29.90px">over evolving truth</tspan>
    </text>
    <rect id="ITEM_5_BODY_FRAME" x="-190.0" y="206" width="380" height="154" fill="none"/>
  </g>
</svg>
