<?xml version='1.0' encoding='utf-8'?>
<svg xmlns="http://www.w3.org/2000/svg" width="1920" height="1080" viewBox="0 0 1920 1080" data-theme="light">
  <style>
        @font-face {
            font-family: 'Inter';
            src: url('assets/fonts/Inter-Regular.ttf') format('truetype');
            font-weight: 400;
            font-style: normal;
            font-display: swap;
        }
        @font-face {
            font-family: 'Inter';
            src: url('assets/fonts/Inter-Bold.ttf') format('truetype');
            font-weight: 600;
            font-style: normal;
            font-display: swap;
        }
        @font-face {
            font-family: 'Inter';
            src: url('assets/fonts/Inter-Bold.ttf') format('truetype');
            font-weight: 800;
            font-style: normal;
            font-display: swap;
        }
        
:root {
    --background: #f8fafc;
    --panel: #ffffff;
    --primary-text: #0f172a;
    --muted-text: #64748b;
    --inverse-text: #ffffff;
    --border: #e2e8f0;
    --shadow-color: #000000;
    --icon-pad-bg: #1e293b;
    --art-glow: #0891b2;
    --art-glow-opacity: 0.10;
    --art-sheen: #ffffff;
    --art-sheen-opacity: 0.34;
    --art-shadow: #0f172a;
    --art-shadow-opacity: 0.14;
    --art-muted-line: #94a3b8;
    --art-panel-tint: #f1f5f9;
    --font-family: 'Inter', 'Segoe UI', 'Kalam', Roboto, Helvetica, Arial, sans-serif;
    --radius-xl: 16px;
    --font-family-headline: 'Inter', 'Segoe UI', 'Kalam', Roboto, Helvetica, Arial, sans-serif;
    --font-family-body: 'Inter', 'Segoe UI', 'Kalam', Roboto, Helvetica, Arial, sans-serif;
    --font-heading: 'Inter', 'Segoe UI', 'Kalam', Roboto, Helvetica, Arial, sans-serif;
    --font-body: 'Inter', 'Segoe UI', 'Kalam', Roboto, Helvetica, Arial, sans-serif;
    --font-size-h1: 56px;
    --font-size-h2: 40px;
    --font-size-h3: 28px;
    --font-size-body: 24px;
    --font-size-caption: 18px;
    --secondary-text: var(--muted-text);
    --panel-border: var(--border);
    --font-weight-normal: 400;
    --font-weight-medium: 500;
    --font-weight-semibold: 600;
    --font-weight-bold: 700;
    --spacing-gutter-pct: 0.07;
    --spacing-top-pct: 0.15;
    --spacing-bottom-pct: 0.07;
    --spacing-title-y-pct: 0.055;
    --accent-1: #0891b2;
    --accent-2: #0284c7;
    --accent-3: #2563eb;
    --accent-4: #4f46e5;
    --accent-5: #7c3aed;
    --accent-6: #0d9488;
}
:root[data-theme="dark"] {
    --background: #0f172a;
    --panel: #1e293b;
    --primary-text: #f1f5f9;
    --muted-text: #94a3b8;
    --inverse-text: #0f172a;
    --border: #334155;
    --shadow-color: #000000;
    --icon-pad-bg: #1e293b;
    --art-glow: #7dd3fc;
    --art-glow-opacity: 0.18;
    --art-sheen: #ffffff;
    --art-sheen-opacity: 0.18;
    --art-shadow: #000000;
    --art-shadow-opacity: 0.28;
    --art-muted-line: #64748b;
    --art-panel-tint: #1e293b;
    --accent-1: #22d3ee;
    --accent-2: #38bdf8;
    --accent-3: #60a5fa;
    --accent-4: #818cf8;
    --accent-5: #a78bfa;
    --accent-6: #2dd4bf;
}
:root[data-theme="light"] {
    --background: #f8fafc;
    --panel: #ffffff;
    --primary-text: #0f172a;
    --muted-text: #64748b;
    --inverse-text: #ffffff;
    --border: #e2e8f0;
    --shadow-color: #000000;
    --icon-pad-bg: #1e293b;
    --art-glow: #0891b2;
    --art-glow-opacity: 0.10;
    --art-sheen: #ffffff;
    --art-sheen-opacity: 0.34;
    --art-shadow: #0f172a;
    --art-shadow-opacity: 0.14;
    --art-muted-line: #94a3b8;
    --art-panel-tint: #f1f5f9;
    --accent-1: #0891b2;
    --accent-2: #0284c7;
    --accent-3: #2563eb;
    --accent-4: #4f46e5;
    --accent-5: #7c3aed;
    --accent-6: #0d9488;
}</style>
  <rect x="0" y="0" width="1.92E+3" height="1.08E+3" fill="#252a34" stroke="none" id="programmatic_background"/>
  <line id="HEADER_DECOR" x1="960.0" x2="1080.0" y1="135.0" y2="135.0" stroke="var(--accent-1)" stroke-width="6" stroke-linecap="round"/>
  <defs>
    <pattern id="svg40d30189-napkin-hatch" patternUnits="userSpaceOnUse" width="12" height="12">
      <path d="M -3 12 L 12 -3 M 0 15 L 15 0" fill="none" stroke="var(--primary-text)" stroke-width="1" stroke-opacity="0.05"/>
    </pattern>
    <filter id="svg40d30189-shadow" x="-30%" y="-30%" width="160%" height="160%">
      <feDropShadow dx="0" dy="3" stdDeviation="4" flood-color="#000000" flood-opacity="0.10"/>
      <feDropShadow dx="0" dy="10" stdDeviation="16" flood-color="#000000" flood-opacity="0.12"/>
    </filter>
    <radialGradient id="svg40d30189-universal-edge-vignette" cx="50%" cy="50%" r="72%">
      <stop offset="0%" stop-color="var(--background)" stop-opacity="0"/>
      <stop offset="72%" stop-color="var(--background)" stop-opacity="0.12"/>
      <stop offset="100%" stop-color="var(--primary-text)" stop-opacity="0.08"/>
    </radialGradient>
    <linearGradient id="svg40d30189-universal-surface-sheen" x1="0%" y1="0%" x2="100%" y2="100%">
      <stop offset="0%" stop-color="var(--art-sheen)" stop-opacity="var(--art-sheen-opacity)"/>
      <stop offset="46%" stop-color="var(--art-sheen)" stop-opacity="0.035"/>
      <stop offset="100%" stop-color="var(--art-panel-tint)" stop-opacity="0.14"/>
    </linearGradient>
    <radialGradient id="svg40d30189-universal-icon-aura" cx="50%" cy="42%" r="64%">
      <stop offset="0%" stop-color="var(--art-glow)" stop-opacity="var(--art-glow-opacity)"/>
      <stop offset="100%" stop-color="var(--background)" stop-opacity="0"/>
    </radialGradient>
    <filter id="svg40d30189-text-glow" x="-20%" y="-20%" width="140%" height="140%">
      <feDropShadow dx="0" dy="0" stdDeviation="2" flood-color="#000000" flood-opacity="0.4"/>
    </filter>
    <marker id="svg40d30189-arrowhead" markerWidth="10" markerHeight="7" refX="9" refY="3.5" orient="auto" markerUnits="strokeWidth">
      <polygon points="0 0, 10 3.5, 0 7" fill="var(--muted-text)" opacity="0.6"/>
    </marker>
  </defs>
  <rect id="CANVAS_BG" width="100%" height="100%" fill="var(--background)"/>
  <rect width="100%" height="100%" fill="url(#svg40d30189-napkin-hatch)"/>
  <rect id="UNIVERSAL_EDGE_VIGNETTE" width="100%" height="100%" fill="url(#svg40d30189-universal-edge-vignette)" opacity="0.62"/>
  <text id="TITLE" x="960.0" y="59" text-anchor="middle" font-weight="800" font-size="56" fill="#0f172a" style="font-size: 60px; font-family: Inter, Segoe UI, Kalam, Roboto, Helvetica, Arial, sans-serif; font-weight: 700; letter-spacing:-1.2px;" data-final-font-size="60">
    <tspan x="960.0" dy="68.00px">Critical Verification Workflow</tspan>
  </text>
  <rect id="TITLE_FRAME" x="134" y="59" width="1652" height="103" fill="none"/>
  <g id="FIELD">
    <rect x="170" y="250" width="700" height="280" rx="34" fill="var(--accent-1)" fill-opacity="0.08" stroke="var(--accent-1)" stroke-width="2" stroke-opacity="0.22"/>
    <rect x="1050" y="250" width="700" height="280" rx="34" fill="var(--accent-3)" fill-opacity="0.08" stroke="var(--accent-3)" stroke-width="2" stroke-opacity="0.22"/>
    <rect x="170" y="670" width="700" height="280" rx="34" fill="var(--accent-4)" fill-opacity="0.08" stroke="var(--accent-4)" stroke-width="2" stroke-opacity="0.18"/>
    <rect x="1050" y="670" width="700" height="280" rx="34" fill="var(--accent-6)" fill-opacity="0.08" stroke="var(--accent-6)" stroke-width="2" stroke-opacity="0.18"/>
    <line x1="960" y1="226" x2="960" y2="974" stroke="var(--primary-text)" stroke-width="11" stroke-opacity="0.20"/>
    <line x1="176" y1="600" x2="1744" y2="600" stroke="var(--primary-text)" stroke-width="11" stroke-opacity="0.20"/>
    <path d="M 960 534 L 1028 600 L 960 666 L 892 600 Z" fill="var(--panel)" fill-opacity="0.94" stroke="var(--primary-text)" stroke-width="4" stroke-opacity="0.28"/>
    <circle cx="960" cy="600" r="38" fill="var(--background)" stroke="var(--primary-text)" stroke-width="4"/>
    <g transform="translate(350, 384)">
      <rect id="ITEM_1_BG" x="-250" y="-110" width="500" height="220" rx="30" fill="var(--panel)" fill-opacity="0.95" stroke="var(--accent-1)" stroke-width="3" filter="url(#svg40d30189-shadow)"/>
      <rect x="-250" y="-110" width="500" height="220" rx="18" fill="url(#svg40d30189-universal-surface-sheen)" opacity="0.84"/>
      <rect x="204" y="-82" width="16" height="164" rx="8" fill="var(--accent-1)" fill-opacity="0.22"/>
      <circle cx="176" cy="-16" r="72" fill="none" stroke="var(--accent-1)" stroke-width="2.5" stroke-opacity="0.14"/>
      <text id="ITEM_1_HEAD" x="-204.0" y="-82.0" text-anchor="start" font-weight="700" font-size="28" fill="var(--accent-4)" data-bg-id="ITEM_1_BG" fill-opacity="1.0" style="font-size: 30px; font-family: Inter, Segoe UI, Kalam, Roboto, Helvetica, Arial, sans-serif; font-weight: 700; letter-spacing:-0.4px;" data-final-font-size="30">
        <tspan x="-204.0" dy="27.25px">Initial Query</tspan>
      </text>
      <rect id="ITEM_1_HEAD_FRAME" x="-204" y="-82" width="310" height="38" fill="none"/>
      <text id="ITEM_1_BODY" x="-204.0" y="-2.0" text-anchor="start" font-size="19" fill="var(--primary-text)" data-bg-id="ITEM_1_BG" style="font-size: 26px; font-family: Inter, Segoe UI, Kalam, Roboto, Helvetica, Arial, sans-serif; font-weight: 400;" data-final-font-size="26">
        <tspan x="-204.0" dy="22.46px">Request a concept</tspan>
        <tspan x="-204.0" dy="29.90px">explanation from</tspan>
        <tspan x="-204.0" dy="29.90px">the chatbot</tspan>
      </text>
      <rect id="ITEM_1_BODY_FRAME" x="-204" y="-2" width="320" height="98" fill="none"/>
      <circle id="ITEM_1_PAD" cx="176" cy="-16" r="44" fill="var(--icon-pad-bg)" opacity="0.96" fill-opacity="0.9" stroke-width="2" stroke="var(--primary-text)"/>
      <circle id="ITEM_1_PAD_INNER" cx="176" cy="-16" r="34.32" fill="var(--accent-4)" fill-opacity="0.22"/>
      <circle cx="176" cy="-16" r="35" fill="none" stroke="var(--accent-1)" stroke-width="2.5" stroke-dasharray="6 4"/>
      <g id="ITEM_1_ICON" transform="translate(141, -51)" data-icon-size="70" stroke-dasharray="6 4">
        <g transform="translate(-5.0,-16.25) scale(2.5)">
          <path d="M2 14C2 12.3431 3.34315 11 5 11H27C28.6569 11 30 12.3431 30 14V25.25C30 26.9069 28.6569 28.25 27 28.25H5C3.34315 28.25 2 26.9069 2 25.25V14Z" fill="#CDC4D6"/>
          <path d="M4 13.5C4 13.2239 4.22386 13 4.5 13H5.5C5.77614 13 6 13.2239 6 13.5V14C6 14.2761 5.77614 14.5 5.5 14.5H4.5C4.22386 14.5 4 14.2761 4 14V13.5ZM4 17.5C4 17.2239 4.22386 17 4.5 17H5.5C5.77614 17 6 17.2239 6 17.5V18.5C6 18.7761 5.77614 19 5.5 19H4.5C4.22386 19 4 18.7761 4 18.5V17.5ZM6.5 20C6.22386 20 6 20.2239 6 20.5V21.5C6 21.7761 6.22386 22 6.5 22H7.5C7.77614 22 8 21.7761 8 21.5V20.5C8 20.2239 7.77614 20 7.5 20H6.5ZM7.5 23C7.22386 23 7 23.2239 7 23.5V24.5C7 24.7761 7.22386 25 7.5 25H8.5C8.77614 25 9 24.7761 9 24.5V23.5C9 23.2239 8.77614 23 8.5 23H7.5ZM23.5 23C23.2239 23 23 23.2239 23 23.5V24.5C23 24.7761 23.2239 25 23.5 25H24.5C24.7761 25 25 24.7761 25 24.5V23.5C25 23.2239 24.7761 23 24.5 23H23.5ZM10 23.5C10 23.2239 10.2239 23 10.5 23H21.5C21.7761 23 22 23.2239 22 23.5V24.5C22 24.7761 21.7761 25 21.5 25H10.5C10.2239 25 10 24.7761 10 24.5V23.5ZM9 20.5C9 20.2239 9.22386 20 9.5 20H10.5C10.7761 20 11 20.2239 11 20.5V21.5C11 21.7761 10.7761 22 10.5 22H9.5C9.22386 22 9 21.7761 9 21.5V20.5ZM12.5 20C12.2239 20 12 20.2239 12 20.5V21.5C12 21.7761 12.2239 22 12.5 22H13.5C13.7761 22 14 21.7761 14 21.5V20.5C14 20.2239 13.7761 20 13.5 20H12.5ZM15 20.5C15 20.2239 15.2239 20 15.5 20H16.5C16.7761 20 17 20.2239 17 20.5V21.5C17 21.7761 16.7761 22 16.5 22H15.5C15.2239 22 15 21.7761 15 21.5V20.5ZM18.5 20C18.2239 20 18 20.2239 18 20.5V21.5C18 21.7761 18.2239 22 18.5 22H19.5C19.7761 22 20 21.7761 20 21.5V20.5C20 20.2239 19.7761 20 19.5 20H18.5ZM21 20.5C21 20.2239 21.2239 20 21.5 20H22.5C22.7761 20 23 20.2239 23 20.5V21.5C23 21.7761 22.7761 22 22.5 22H21.5C21.2239 22 21 21.7761 21 21.5V20.5ZM24.5 20C24.2239 20 24 20.2239 24 20.5V21.5C24 21.7761 24.2239 22 24.5 22H25.5C25.7761 22 26 21.7761 26 21.5V20.5C26 20.2239 25.7761 20 25.5 20H24.5ZM7.5 17C7.22386 17 7 17.2239 7 17.5V18.5C7 18.7761 7.22386 19 7.5 19H8.5C8.77614 19 9 18.7761 9 18.5V17.5C9 17.2239 8.77614 17 8.5 17H7.5ZM10 17.5C10 17.2239 10.2239 17 10.5 17H11.5C11.7761 17 12 17.2239 12 17.5V18.5C12 18.7761 11.7761 19 11.5 19H10.5C10.2239 19 10 18.7761 10 18.5V17.5ZM13.5 17C13.2239 17 13 17.2239 13 17.5V18.5C13 18.7761 13.2239 19 13.5 19H14.5C14.7761 19 15 18.7761 15 18.5V17.5C15 17.2239 14.7761 17 14.5 17H13.5ZM16 17.5C16 17.2239 16.2239 17 16.5 17H17.5C17.7761 17 18 17.2239 18 17.5V18.5C18 18.7761 17.7761 19 17.5 19H16.5C16.2239 19 16 18.7761 16 18.5V17.5ZM19.5 17C19.2239 17 19 17.2239 19 17.5V18.5C19 18.7761 19.2239 19 19.5 19H20.5C20.7761 19 21 18.7761 21 18.5V17.5C21 17.2239 20.7761 17 20.5 17H19.5ZM22 17.5C22 17.2239 22.2239 17 22.5 17H23.5C23.7761 17 24 17.2239 24 17.5V18.5C24 18.7761 23.7761 19 23.5 19H22.5C22.2239 19 22 18.7761 22 18.5V17.5ZM25.5 17C25.2239 17 25 17.2239 25 17.5V18.5C25 18.7761 25.2239 19 25.5 19H26.5C26.7761 19 27 18.7761 27 18.5V17.5C27 17.2239 26.7761 17 26.5 17H25.5ZM10.5 13C10.2239 13 10 13.2239 10 13.5V14C10 14.2761 10.2239 14.5 10.5 14.5H11.5C11.7761 14.5 12 14.2761 12 14V13.5C12 13.2239 11.7761 13 11.5 13H10.5ZM13 13.5C13 13.2239 13.2239 13 13.5 13H14.5C14.7761 13 15 13.2239 15 13.5V14C15 14.2761 14.7761 14.5 14.5 14.5H13.5C13.2239 14.5 13 14.2761 13 14V13.5ZM16.5 13C16.2239 13 16 13.2239 16 13.5V14C16 14.2761 16.2239 14.5 16.5 14.5H17.5C17.7761 14.5 18 14.2761 18 14V13.5C18 13.2239 17.7761 13 17.5 13H16.5ZM19 13.5C19 13.2239 19.2239 13 19.5 13H20.5C20.7761 13 21 13.2239 21 13.5V14C21 14.2761 20.7761 14.5 20.5 14.5H19.5C19.2239 14.5 19 14.2761 19 14V13.5ZM22.5 13C22.2239 13 22 13.2239 22 13.5V14C22 14.2761 22.2239 14.5 22.5 14.5H23.5C23.7761 14.5 24 14.2761 24 14V13.5C24 13.2239 23.7761 13 23.5 13H22.5ZM25 13.5C25 13.2239 25.2239 13 25.5 13H26.5C26.7761 13 27 13.2239 27 13.5V14C27 14.2761 26.7761 14.5 26.5 14.5H25.5C25.2239 14.5 25 14.2761 25 14V13.5ZM2 27V25C2 26.6569 3.34315 28 5 28H27C28.6569 28 30 26.6569 30 25V27C30 28.6569 28.6569 30 27 30H5C3.34315 30 2 28.6569 2 27Z" fill="#998EA4"/>
        </g>
      </g>
    </g>
    <g transform="translate(960, 384)">
      <rect id="ITEM_2_BG" x="-250" y="-100" width="500" height="200" rx="30" fill="var(--panel)" fill-opacity="0.96" stroke="var(--accent-2)" stroke-width="3" filter="url(#svg40d30189-shadow)"/>
      <rect x="-198" y="-70" width="396" height="12" rx="6" fill="var(--accent-2)" fill-opacity="0.18"/>
      <circle cx="0" cy="-12" r="76" fill="none" stroke="var(--accent-2)" stroke-width="2.5" stroke-opacity="0.14"/>
      <text id="ITEM_2_HEAD" x="0.0" y="-72.0" text-anchor="middle" font-weight="700" font-size="28" fill="var(--accent-5)" data-bg-id="ITEM_2_BG" fill-opacity="1.0" style="font-size: 30px; font-family: Inter, Segoe UI, Kalam, Roboto, Helvetica, Arial, sans-serif; font-weight: 700; letter-spacing:-0.4px;" data-final-font-size="30">
        <tspan x="0.0" dy="27.25px">Uncertainty Probing</tspan>
      </text>
      <rect id="ITEM_2_HEAD_FRAME" x="-190" y="-72" width="380" height="38" fill="none"/>
      <text id="ITEM_2_BODY" x="0.0" y="0.0" text-anchor="middle" font-size="19" fill="var(--primary-text)" data-bg-id="ITEM_2_BG" style="font-size: 26px; font-family: Inter, Segoe UI, Kalam, Roboto, Helvetica, Arial, sans-serif; font-weight: 400;" data-final-font-size="26">
        <tspan x="0.0" dy="26.44px">Ask for evidence and competing</tspan>
        <tspan x="0.0" dy="29.90px">explanations</tspan>
      </text>
      <rect id="ITEM_2_BODY_FRAME" x="-190" y="0" width="380" height="88" fill="none"/>
      <circle id="ITEM_2_PAD" cx="0" cy="-12" r="45" fill="var(--icon-pad-bg)" opacity="0.96" fill-opacity="0.9" stroke-width="2" stroke="var(--primary-text)"/>
      <circle id="ITEM_2_PAD_INNER" cx="0" cy="-12" r="35.10" fill="var(--accent-5)" fill-opacity="0.22"/>
      <circle cx="0" cy="-12" r="36" fill="none" stroke="var(--accent-2)" stroke-width="2.5" stroke-dasharray="6 4"/>
      <g id="ITEM_2_ICON" transform="translate(-36, -48)" data-icon-size="72" stroke-dasharray="6 4">
        <g transform="translate(-2.3801652892561984,-2.0826446280991746) scale(2.3801652892561984)">
          <path d="M16.0278 4C8.16615 4 3.53108 9.75575 1.66714 12.7026C0.772249 14.1175 0.772247 15.8825 1.66714 17.2974C3.53108 20.2442 8.16615 26 16.0278 26C17.2577 26 18.413 25.8582 19.4936 25.6063L23.8434 27.8365C24.8416 28.3483 26.0278 27.6235 26.0278 26.5017V22.3015C28.083 20.6044 29.5201 18.6702 30.3884 17.2974C31.2833 15.8825 31.2833 14.1175 30.3884 12.7026C28.5245 9.75575 23.8894 4 16.0278 4Z" fill="#9B9B9B"/>
          <path d="M24.2997 26.9467L19.6172 24.5458C18.5104 24.8344 17.3146 25 16.0278 25C8.70189 25 4.32778 19.6331 2.51227 16.7628C1.82387 15.6744 1.82387 14.3256 2.51228 13.2372C4.32778 10.3669 8.7019 5 16.0278 5C23.3537 5 27.7278 10.3669 29.5433 13.2372C30.2317 14.3256 30.2317 15.6744 29.5433 16.7628C28.6595 18.16 27.1695 20.1489 25.0278 21.8222V26.5017C25.0278 26.8757 24.6324 27.1173 24.2997 26.9467Z" fill="white"/>
        </g>
      </g>
    </g>
    <g transform="translate(1570, 384)">
      <rect id="ITEM_3_BG" x="-250" y="-110" width="500" height="220" rx="30" fill="var(--panel)" fill-opacity="0.95" stroke="var(--accent-3)" stroke-width="3" filter="url(#svg40d30189-shadow)"/>
      <rect x="-250" y="-110" width="500" height="220" rx="18" fill="url(#svg40d30189-universal-surface-sheen)" opacity="0.84"/>
      <rect x="-220" y="-82" width="16" height="164" rx="8" fill="var(--accent-3)" fill-opacity="0.22"/>
      <circle cx="-176" cy="-16" r="72" fill="none" stroke="var(--accent-3)" stroke-width="2.5" stroke-opacity="0.14"/>
      <text id="ITEM_3_HEAD" x="204.0" y="-82.0" text-anchor="end" font-weight="700" font-size="28" fill="var(--primary-text)" data-bg-id="ITEM_3_BG" fill-opacity="1.0" style="font-size: 30px; font-family: Inter, Segoe UI, Kalam, Roboto, Helvetica, Arial, sans-serif; font-weight: 700; letter-spacing:-0.4px;" data-final-font-size="30">
        <tspan x="204.0" dy="27.25px">Source Isolation</tspan>
      </text>
      <rect id="ITEM_3_HEAD_FRAME" x="-106" y="-82" width="310" height="38" fill="none"/>
      <text id="ITEM_3_BODY" x="204.0" y="-2.0" text-anchor="end" font-size="19" fill="var(--primary-text)" data-bg-id="ITEM_3_BG" style="font-size: 26px; font-family: Inter, Segoe UI, Kalam, Roboto, Helvetica, Arial, sans-serif; font-weight: 400;" data-final-font-size="26">
        <tspan x="204.0" dy="28.44px">Separate the explanation</tspan>
        <tspan x="204.0" dy="29.90px">from the core facts</tspan>
      </text>
      <rect id="ITEM_3_BODY_FRAME" x="-116" y="-2" width="320" height="98" fill="none"/>
      <circle id="ITEM_3_PAD" cx="-176" cy="-16" r="44" fill="var(--icon-pad-bg)" opacity="0.96" fill-opacity="0.9" stroke-width="2" stroke="var(--primary-text)"/>
      <circle id="ITEM_3_PAD_INNER" cx="-176" cy="-16" r="34.32" fill="var(--accent-6)" fill-opacity="0.22"/>
      <circle cx="-176" cy="-16" r="35" fill="none" stroke="var(--accent-3)" stroke-width="2.5" stroke-dasharray="6 4"/>
      <g id="ITEM_3_ICON" transform="translate(-211, -51)" data-icon-size="70" stroke-dasharray="6 4">
        <g transform="translate(-2.9661016949152543,-2.966101694915256) scale(3.1638418079096047)" vector-effect="non-scaling-stroke" stroke-width="2.55" stroke-linecap="round" stroke-linejoin="round" stroke-opacity="1.0">
          <path d="M4 3 2 5v15c0 .6.4 1 1 1h2c.6 0 1-.4 1-1V5Z" vector-effect="non-scaling-stroke" fill="none" stroke="#f1f5f9"/>
          <path d="M6 8h4" vector-effect="non-scaling-stroke" fill="none" stroke="#f1f5f9"/>
          <path d="M6 18h4" vector-effect="non-scaling-stroke" fill="none" stroke="#f1f5f9"/>
          <path d="m12 3-2 2v15c0 .6.4 1 1 1h2c.6 0 1-.4 1-1V5Z" vector-effect="non-scaling-stroke" fill="none" stroke="#f1f5f9"/>
          <path d="M14 8h4" vector-effect="non-scaling-stroke" fill="none" stroke="#f1f5f9"/>
          <path d="M14 18h4" vector-effect="non-scaling-stroke" fill="none" stroke="#f1f5f9"/>
          <path d="m20 3-2 2v15c0 .6.4 1 1 1h2c.6 0 1-.4 1-1V5Z" vector-effect="non-scaling-stroke" fill="none" stroke="#f1f5f9"/>
        </g>
      </g>
    </g>
    <g transform="translate(350, 816)">
      <rect id="ITEM_4_BG" x="-250" y="-110" width="500" height="220" rx="30" fill="var(--panel)" fill-opacity="0.95" stroke="var(--accent-4)" stroke-width="3" filter="url(#svg40d30189-shadow)"/>
      <rect x="-250" y="-110" width="500" height="220" rx="18" fill="url(#svg40d30189-universal-surface-sheen)" opacity="0.84"/>
      <rect x="204" y="-82" width="16" height="164" rx="8" fill="var(--accent-4)" fill-opacity="0.22"/>
      <circle cx="176" cy="-16" r="72" fill="none" stroke="var(--accent-4)" stroke-width="2.5" stroke-opacity="0.14"/>
      <text id="ITEM_4_HEAD" x="-204.0" y="-82.0" text-anchor="start" font-weight="700" font-size="28" fill="var(--primary-text)" data-bg-id="ITEM_4_BG" fill-opacity="1.0" style="font-size: 30px; font-family: Inter, Segoe UI, Kalam, Roboto, Helvetica, Arial, sans-serif; font-weight: 700; letter-spacing:-0.4px;" data-final-font-size="30">
        <tspan x="-204.0" dy="27.25px">Verification</tspan>
      </text>
      <rect id="ITEM_4_HEAD_FRAME" x="-204" y="-82" width="310" height="38" fill="none"/>
      <text id="ITEM_4_BODY" x="-204.0" y="-2.0" text-anchor="start" font-size="19" fill="var(--primary-text)" data-bg-id="ITEM_4_BG" style="font-size: 26px; font-family: Inter, Segoe UI, Kalam, Roboto, Helvetica, Arial, sans-serif; font-weight: 400;" data-final-font-size="26">
        <tspan x="-204.0" dy="22.46px">Check facts against</tspan>
        <tspan x="-204.0" dy="29.90px">official documents and</tspan>
        <tspan x="-204.0" dy="29.90px">journals</tspan>
      </text>
      <rect id="ITEM_4_BODY_FRAME" x="-204" y="-2" width="320" height="98" fill="none"/>
      <circle id="ITEM_4_PAD" cx="176" cy="-16" r="44" fill="var(--icon-pad-bg)" opacity="0.96" fill-opacity="0.9" stroke-width="2" stroke="var(--primary-text)"/>
      <circle id="ITEM_4_PAD_INNER" cx="176" cy="-16" r="34.32" fill="var(--accent-1)" fill-opacity="0.22"/>
      <circle cx="176" cy="-16" r="35" fill="none" stroke="var(--accent-4)" stroke-width="2.5" stroke-dasharray="6 4"/>
      <g id="ITEM_4_ICON" transform="translate(141, -51)" data-icon-size="70" stroke-dasharray="6 4">
        <g transform="translate(-2.966101694915256,-2.9661016949152543) scale(3.1638418079096047)" vector-effect="non-scaling-stroke" stroke-width="2.55" stroke-linecap="round" stroke-linejoin="round" stroke-opacity="1.0">
          <ellipse cx="12" cy="5" rx="9" ry="3" vector-effect="non-scaling-stroke" fill="none" stroke="#f1f5f9"/>
          <path d="M3 5V19A9 3 0 0 0 21 19V5" vector-effect="non-scaling-stroke" fill="none" stroke="#f1f5f9"/>
          <path d="M3 12A9 3 0 0 0 21 12" vector-effect="non-scaling-stroke" fill="none" stroke="#f1f5f9"/>
        </g>
      </g>
    </g>
    <g transform="translate(960, 816)">
      <rect id="ITEM_5_BG" x="-250" y="-100" width="500" height="200" rx="30" fill="var(--panel)" fill-opacity="0.96" stroke="var(--accent-5)" stroke-width="3" filter="url(#svg40d30189-shadow)"/>
      <rect x="-198" y="-70" width="396" height="12" rx="6" fill="var(--accent-5)" fill-opacity="0.18"/>
      <circle cx="0" cy="-12" r="76" fill="none" stroke="var(--accent-5)" stroke-width="2.5" stroke-opacity="0.14"/>
      <text id="ITEM_5_HEAD" x="0.0" y="-72.0" text-anchor="middle" font-weight="700" font-size="28" fill="var(--primary-text)" data-bg-id="ITEM_5_BG" fill-opacity="1.0" style="font-size: 30px; font-family: Inter, Segoe UI, Kalam, Roboto, Helvetica, Arial, sans-serif; font-weight: 700; letter-spacing:-0.4px;" data-final-font-size="30">
        <tspan x="0.0" dy="27.25px">Final Synthesis</tspan>
      </text>
      <rect id="ITEM_5_HEAD_FRAME" x="-190" y="-72" width="380" height="38" fill="none"/>
      <text id="ITEM_5_BODY" x="0.0" y="0.0" text-anchor="middle" font-size="19" fill="var(--primary-text)" data-bg-id="ITEM_5_BG" style="font-size: 26px; font-family: Inter, Segoe UI, Kalam, Roboto, Helvetica, Arial, sans-serif; font-weight: 400;" data-final-font-size="26">
        <tspan x="0.0" dy="26.44px">Integrate verified data</tspan>
        <tspan x="0.0" dy="29.90px">into the final conclusion</tspan>
      </text>
      <rect id="ITEM_5_BODY_FRAME" x="-190" y="0" width="380" height="88" fill="none"/>
      <circle id="ITEM_5_PAD" cx="0" cy="-12" r="45" fill="var(--icon-pad-bg)" opacity="0.96" fill-opacity="0.9" stroke-width="2" stroke="var(--primary-text)"/>
      <circle id="ITEM_5_PAD_INNER" cx="0" cy="-12" r="35.10" fill="var(--accent-2)" fill-opacity="0.22"/>
      <circle cx="0" cy="-12" r="36" fill="none" stroke="var(--accent-5)" stroke-width="2.5" stroke-dasharray="6 4"/>
      <g id="ITEM_5_ICON" transform="translate(-36, -48)" data-icon-size="72" stroke-dasharray="6 4">
        <g transform="translate(-5.142857142857143,-2.5714285714285747) scale(0.32142857142857145)" vector-effect="non-scaling-stroke" stroke-width="2.58" stroke-linecap="round" stroke-linejoin="round" stroke-opacity="1.0">
          <path d="M24,176V64A24,24,0,0,1,48,40H64V152H48a24,24,0,0,0,0,48H232V64H64" fill="none" stroke="#f1f5f9" vector-effect="non-scaling-stroke"/>
          <line x1="128" y1="96" x2="128" y2="160" fill="none" stroke="#f1f5f9" vector-effect="non-scaling-stroke"/>
          <line x1="168" y1="96" x2="168" y2="160" fill="none" stroke="#f1f5f9" vector-effect="non-scaling-stroke"/>
          <line x1="104" y1="112" x2="192" y2="112" fill="none" stroke="#f1f5f9" vector-effect="non-scaling-stroke"/>
          <line x1="104" y1="144" x2="192" y2="144" fill="none" stroke="#f1f5f9" vector-effect="non-scaling-stroke"/>
        </g>
      </g>
    </g>
    <g transform="translate(1570, 816)">
      <rect id="ITEM_6_BG" x="-250" y="-110" width="500" height="220" rx="30" fill="var(--panel)" fill-opacity="0.95" stroke="var(--accent-6)" stroke-width="3" filter="url(#svg40d30189-shadow)"/>
      <rect x="-250" y="-110" width="500" height="220" rx="18" fill="url(#svg40d30189-universal-surface-sheen)" opacity="0.84"/>
      <rect x="-220" y="-82" width="16" height="164" rx="8" fill="var(--accent-6)" fill-opacity="0.22"/>
      <circle cx="-176" cy="-16" r="72" fill="none" stroke="var(--accent-6)" stroke-width="2.5" stroke-opacity="0.14"/>
      <text id="ITEM_6_HEAD" x="204.0" y="-82.0" text-anchor="end" font-weight="700" font-size="28" fill="var(--accent-3)" data-bg-id="ITEM_6_BG" fill-opacity="1.0" style="font-size: 30px; font-family: Inter, Segoe UI, Kalam, Roboto, Helvetica, Arial, sans-serif; font-weight: 700; letter-spacing:-0.4px;" data-final-font-size="30">
        <tspan x="204.0" dy="27.25px">Critical Reflection</tspan>
      </text>
      <rect id="ITEM_6_HEAD_FRAME" x="-106" y="-82" width="310" height="38" fill="none"/>
      <text id="ITEM_6_BODY" x="204.0" y="-2.0" text-anchor="end" font-size="19" fill="var(--primary-text)" data-bg-id="ITEM_6_BG" style="font-size: 26px; font-family: Inter, Segoe UI, Kalam, Roboto, Helvetica, Arial, sans-serif; font-weight: 400;" data-final-font-size="26">
        <tspan x="204.0" dy="22.46px">Evaluate how the answer</tspan>
        <tspan x="204.0" dy="29.90px">was constructed and</tspan>
        <tspan x="204.0" dy="29.90px">verified</tspan>
      </text>
      <rect id="ITEM_6_BODY_FRAME" x="-116" y="-2" width="320" height="98" fill="none"/>
      <circle id="ITEM_6_PAD" cx="-176" cy="-16" r="44" fill="var(--icon-pad-bg)" opacity="0.96" fill-opacity="0.9" stroke-width="2" stroke="var(--primary-text)"/>
      <circle id="ITEM_6_PAD_INNER" cx="-176" cy="-16" r="34.32" fill="var(--accent-3)" fill-opacity="0.22"/>
      <circle cx="-176" cy="-16" r="35" fill="none" stroke="var(--accent-6)" stroke-width="2.5" stroke-dasharray="6 4"/>
      <g id="ITEM_6_ICON" transform="translate(-211, -51)" data-icon-size="70" stroke-dasharray="6 4">
        <g transform="translate(-2.966101694915258,-2.9661016949152543) scale(3.1638418079096047)" vector-effect="non-scaling-stroke" stroke-width="2.55" stroke-linecap="round" stroke-linejoin="round" stroke-opacity="1.0">
          <path d="M15 14c.2-1 .7-1.7 1.5-2.5 1-.9 1.5-2.2 1.5-3.5A6 6 0 0 0 6 8c0 1 .2 2.2 1.5 3.5.7.7 1.3 1.5 1.5 2.5" vector-effect="non-scaling-stroke" fill="none" stroke="#f1f5f9"/>
          <path d="M9 18h6" vector-effect="non-scaling-stroke" fill="none" stroke="#f1f5f9"/>
          <path d="M10 22h4" vector-effect="non-scaling-stroke" fill="none" stroke="#f1f5f9"/>
        </g>
      </g>
    </g>
  </g>
</svg>
